<?xml version="1.0" encoding="UTF-8" standalone="no"?>
<!-- Created with Inkscape (http://www.inkscape.org/) -->

<svg
   width="98"
   height="35"
   viewBox="0 0 25.929165 9.2604167"
   version="1.1"
   id="svg5"
   inkscape:version="1.1 (c68e22c387, 2021-05-23)"
   sodipodi:docname="logotipo.svg"
   xmlns:inkscape="http://www.inkscape.org/namespaces/inkscape"
   xmlns:sodipodi="http://sodipodi.sourceforge.net/DTD/sodipodi-0.dtd"
   xmlns="http://www.w3.org/2000/svg"
   xmlns:svg="http://www.w3.org/2000/svg">
  <sodipodi:namedview
     id="namedview7"
     pagecolor="#ffffff"
     bordercolor="#666666"
     borderopacity="1.0"
     inkscape:pageshadow="2"
     inkscape:pageopacity="0.0"
     inkscape:pagecheckerboard="0"
     inkscape:document-units="mm"
     showgrid="false"
     units="px"
     inkscape:zoom="11.745006"
     inkscape:cx="33.673887"
     inkscape:cy="13.835668"
     inkscape:window-width="1920"
     inkscape:window-height="1009"
     inkscape:window-x="-8"
     inkscape:window-y="-8"
     inkscape:window-maximized="1"
     inkscape:current-layer="layer1" />
  <defs
     id="defs2" />
  <g
     inkscape:label="Capa 1"
     inkscape:groupmode="layer"
     id="layer1">
    <g
       aria-label="Jesús Ortiz"
       id="text1332"
       style="font-size:4.36062px;line-height:1.25;font-family:Calibri;-inkscape-font-specification:Calibri;stroke-width:0.109016">
      <path
         d="m 3.9829492,3.2284444 h 0.6061261 v 2.1149007 q 0,0.3968165 -0.2398341,0.6410112 -0.2398341,0.2398341 -0.710781,0.2398341 -0.4229802,0 -0.6584536,-0.2223916 Q 2.7445331,5.7750465 2.7445331,5.3259027 V 5.0293805 h 0.5494381 v 0.2659978 q 0,0.2223916 0.078491,0.3314071 0.078491,0.1046549 0.2659978,0.1046549 0.2093097,0 0.274719,-0.1002942 0.06977,-0.1046549 0.06977,-0.344489 z"
         style="font-family:Coolvetica;-inkscape-font-specification:Coolvetica"
         id="path823" />
      <path
         d="M 6.2330228,4.8418738 Q 6.2286622,4.7241371 6.1894166,4.6369247 6.1545317,4.5453517 6.093483,4.4886636 6.0324343,4.4276149 5.9539432,4.4014512 5.875452,4.3709269 5.7926002,4.3709269 q -0.1700642,0 -0.2965222,0.126458 Q 5.3739807,4.6194822 5.3565382,4.8418738 Z M 5.3390957,5.1994447 q 0.013082,0.2441947 0.1395399,0.3880952 0.1308186,0.1439004 0.3401283,0.1439004 0.1395399,0 0.2441948,-0.061049 0.1090155,-0.065409 0.1395398,-0.1787854 H 6.7868216 Q 6.6865273,5.8230133 6.437972,6.0017988 6.1894166,6.1805842 5.8449277,6.1805842 q -1.0727126,0 -1.0727126,-1.1686462 0,-0.2485553 0.06977,-0.4491438 0.06977,-0.2005886 0.2005886,-0.344489 0.1351792,-0.1439005 0.3270465,-0.218031 0.1918672,-0.078491 0.4404226,-0.078491 0.4971107,0 0.7500266,0.3183253 0.2572766,0.3183252 0.2572766,0.9593364 z"
         style="font-family:Coolvetica;-inkscape-font-specification:Coolvetica"
         id="path825" />
      <path
         d="M 8.3043102,4.6282035 Q 8.2825071,4.4712211 8.1909341,4.4101725 8.0993611,4.3447632 7.9031332,4.3447632 q -0.1613429,0 -0.2485553,0.043606 -0.087212,0.039245 -0.087212,0.1351792 0,0.095934 0.087212,0.1482611 0.087212,0.047967 0.2616372,0.095934 0.183146,0.052327 0.3488496,0.095934 0.1657035,0.039246 0.2921615,0.087212 0.1700642,0.06977 0.2616372,0.1918673 0.091573,0.1177368 0.091573,0.3270465 0,0.3357678 -0.2398341,0.5232744 -0.2354735,0.1875067 -0.6976992,0.1875067 -0.4971107,0 -0.7631085,-0.2093098 Q 6.9481574,5.7619647 6.9394362,5.4349182 h 0.5843231 q 0,0.1526217 0.1177367,0.2354734 0.1177367,0.082852 0.3270465,0.082852 0.1526217,0 0.2659978,-0.047967 0.1133761,-0.052327 0.1133761,-0.1744248 0,-0.1133761 -0.1046548,-0.1613429 Q 8.1429673,5.321542 8.0034275,5.2866571 7.733069,5.2212478 7.5673655,5.1689203 7.4016619,5.1165929 7.2882858,5.0424624 7.1356641,4.9465287 7.0746154,4.8244314 7.0179273,4.702334 7.0179273,4.5584335 q 0,-0.1351792 0.047967,-0.2529159 Q 7.113861,4.1877808 7.2228765,4.1049291 7.331892,4.0177167 7.5019562,3.9697498 7.676381,3.921783 7.9205757,3.921783 q 0.4665863,0 0.6846173,0.1787854 0.2223916,0.1787855 0.2441947,0.5276351 z"
         style="font-family:Coolvetica;-inkscape-font-specification:Coolvetica"
         id="path827" />
      <path
         d="m 9.0717714,6.1238961 z m 1.3953986,0 V 5.8230133 q -0.218031,0.3575709 -0.6671751,0.3575709 -0.1613429,0 -0.2965222,-0.056688 Q 9.3726541,6.0672081 9.2767205,5.9625532 9.1807869,5.8578983 9.1240988,5.7139978 9.0717714,5.5700974 9.0717714,5.391312 V 3.9784711 H 9.638652 v 1.3256285 q 0,0.401177 0.361931,0.401177 0.218031,0 0.327047,-0.1351792 0.113376,-0.1395399 0.113376,-0.3532102 V 3.9784711 h 0.56252 v 2.145425 z M 9.7651099,3.7081126 9.6299307,3.4682785 10.532579,2.9406435 10.737528,3.2982143 Z"
         style="font-family:Coolvetica;-inkscape-font-specification:Coolvetica"
         id="path829" />
      <path
         d="m 12.542817,4.6282035 q -0.0218,-0.1569824 -0.113376,-0.218031 -0.09157,-0.065409 -0.287801,-0.065409 -0.161343,0 -0.248555,0.043606 -0.08721,0.039245 -0.08721,0.1351792 0,0.095934 0.08721,0.1482611 0.08721,0.047967 0.261637,0.095934 0.183146,0.052327 0.348849,0.095934 0.165704,0.039246 0.292162,0.087212 0.170064,0.06977 0.261637,0.1918673 0.09157,0.1177368 0.09157,0.3270465 0,0.3357678 -0.239834,0.5232744 -0.235473,0.1875067 -0.697699,0.1875067 -0.497111,0 -0.763109,-0.2093098 -0.261637,-0.2093097 -0.270358,-0.5363562 h 0.584323 q 0,0.1526217 0.117737,0.2354734 0.117737,0.082852 0.327046,0.082852 0.152622,0 0.265998,-0.047967 0.113376,-0.052327 0.113376,-0.1744248 0,-0.1133761 -0.104655,-0.1613429 -0.100294,-0.047967 -0.239834,-0.082852 -0.270358,-0.065409 -0.436062,-0.1177368 -0.165703,-0.052327 -0.279079,-0.1264579 -0.152622,-0.095934 -0.213671,-0.218031 -0.05669,-0.1220974 -0.05669,-0.2659979 0,-0.1351792 0.04797,-0.2529159 0.04797,-0.1177368 0.156982,-0.2005885 0.109016,-0.087212 0.27908,-0.1351793 0.174425,-0.047967 0.418619,-0.047967 0.466587,0 0.684618,0.1787854 0.222391,0.1787855 0.244195,0.5276351 z"
         style="font-family:Coolvetica;-inkscape-font-specification:Coolvetica"
         id="path831" />
      <path
         d="m 15.704255,5.7052766 q 0.161343,0 0.305244,-0.056688 0.1439,-0.061049 0.248555,-0.1787854 0.109016,-0.1220973 0.170064,-0.309604 0.06105,-0.1875067 0.06105,-0.4447832 0,-0.5145532 -0.200589,-0.780551 Q 16.08799,3.668867 15.704255,3.668867 q -0.383734,0 -0.588683,0.2659979 -0.20495,0.2659978 -0.20495,0.780551 0,0.5145531 0.20495,0.7543872 0.209309,0.2354735 0.588683,0.2354735 z m 0,0.5189138 q -0.671535,0 -1.033467,-0.3924558 -0.35757,-0.3924558 -0.35757,-1.1294006 0,-0.3662921 0.09157,-0.6584536 0.09157,-0.2921616 0.270358,-0.4927501 0.178785,-0.2049491 0.436062,-0.309604 0.257277,-0.1090155 0.593044,-0.1090155 0.331407,0 0.588684,0.1090155 0.261637,0.1046549 0.436062,0.309604 0.174425,0.2049492 0.265998,0.5014713 0.09157,0.2921616 0.09157,0.6628143 0,0.7500266 -0.357571,1.1294005 -0.35321,0.379374 -1.024746,0.379374 z"
         style="font-family:Coolvetica;-inkscape-font-specification:Coolvetica"
         id="path833" />
      <path
         d="m 17.282791,6.1238961 v -2.145425 h 0.531996 v 0.2572766 q 0.06977,-0.1090155 0.1439,-0.1700642 0.07849,-0.061049 0.156983,-0.091573 0.08285,-0.034885 0.165703,-0.043606 0.08285,-0.00872 0.170065,-0.00872 h 0.07413 v 0.5799625 q -0.07849,-0.013082 -0.156982,-0.013082 -0.518914,0 -0.518914,0.5189138 v 1.1163187 z"
         style="font-family:Coolvetica;-inkscape-font-specification:Coolvetica"
         id="path835" />
      <path
         d="m 19.89916,4.7110552 h 0.527635 V 5.321542 q 0,0.1700642 -0.05233,0.3270465 -0.04797,0.1526217 -0.156982,0.2747191 -0.104655,0.1177367 -0.270358,0.1875067 -0.161343,0.06977 -0.388096,0.06977 -0.235473,0 -0.401177,-0.06977 Q 18.992151,6.0410443 18.883135,5.9233076 18.77848,5.8055709 18.730514,5.6485885 18.682547,5.4916062 18.682547,5.3171814 V 3.3985086 h 0.558159 v 0.5799625 h 1.186089 v 0.401177 h -1.186089 v 0.8808453 q 0,0.2049491 0.07413,0.3183252 0.07849,0.1090155 0.252916,0.1090155 0.170064,0 0.248555,-0.1090155 0.08285,-0.1090155 0.08285,-0.309604 z"
         style="font-family:Coolvetica;-inkscape-font-specification:Coolvetica"
         id="path837" />
      <path
         d="m 20.670987,6.1238961 v -2.145425 h 0.56688 v 2.145425 z m 0,-2.4027016 v -0.527635 h 0.56688 v 0.527635 z"
         style="font-family:Coolvetica;-inkscape-font-specification:Coolvetica"
         id="path839" />
      <path
         d="M 21.421011,6.1238961 V 5.6878341 L 22.515526,4.4276149 H 21.495141 V 3.9784711 h 1.744248 v 0.4578651 l -1.094515,1.2253342 h 1.12504 v 0.4622257 z"
         style="font-family:Coolvetica;-inkscape-font-specification:Coolvetica"
         id="path841" />
    </g>
  </g>
</svg>
